<?xml version="1.0" encoding="utf-8"?>
<svg version="1.1" xmlns:xlink="http://www.w3.org/1999/xlink" width="140px" height="40px" xmlns="http://www.w3.org/2000/svg">
  <defs>
    <mask fill="white" id="clip20">
      <path d="M 26.3934426229508 40  C 11.6131147540984 40  0 31.2  0 20  C 0 8.8  11.6131147540984 0  26.3934426229508 0  L 57.9154017405332 0  L 113.606557377049 0  C 128.386885245902 0  140 8.8  140 20  C 140 31.2  128.386885245902 40  113.606557377049 40  L 26.3934426229508 40  Z " fill-rule="evenodd" />
    </mask>
  </defs>
  <g transform="matrix(1 0 0 1 -426 -17 )">
    <path d="M 26.3934426229508 40  C 11.6131147540984 40  0 31.2  0 20  C 0 8.8  11.6131147540984 0  26.3934426229508 0  L 57.9154017405332 0  L 113.606557377049 0  C 128.386885245902 0  140 8.8  140 20  C 140 31.2  128.386885245902 40  113.606557377049 40  L 26.3934426229508 40  Z " fill-rule="nonzero" fill="#ffffff" stroke="none" transform="matrix(1 0 0 1 426 17 )" />
    <path d="M 26.3934426229508 40  C 11.6131147540984 40  0 31.2  0 20  C 0 8.8  11.6131147540984 0  26.3934426229508 0  L 57.9154017405332 0  L 113.606557377049 0  C 128.386885245902 0  140 8.8  140 20  C 140 31.2  128.386885245902 40  113.606557377049 40  L 26.3934426229508 40  Z " stroke-width="2" stroke="#797979" fill="none" transform="matrix(1 0 0 1 426 17 )" mask="url(#clip20)" />
  </g>
</svg>