<?xml version="1.0" encoding="utf-8"?>
<svg version="1.1" xmlns:xlink="http://www.w3.org/1999/xlink" width="61px" height="23px" xmlns="http://www.w3.org/2000/svg">
  <defs>
    <mask fill="white" id="clip22">
      <path d="M 11.5 23  C 5.06 23  0 17.94  0 11.5  C 0 5.06  5.06 0  11.5 0  L 25.2345679012323 0  L 49.5 0  C 55.94 0  61 5.06  61 11.5  C 61 17.94  55.94 23  49.5 23  L 11.5 23  Z " fill-rule="evenodd" />
    </mask>
  </defs>
  <g transform="matrix(1 0 0 1 -179 -7 )">
    <path d="M 11.5 23  C 5.06 23  0 17.94  0 11.5  C 0 5.06  5.06 0  11.5 0  L 25.2345679012323 0  L 49.5 0  C 55.94 0  61 5.06  61 11.5  C 61 17.94  55.94 23  49.5 23  L 11.5 23  Z " fill-rule="nonzero" fill="#ffffff" stroke="none" transform="matrix(1 0 0 1 179 7 )" />
    <path d="M 11.5 23  C 5.06 23  0 17.94  0 11.5  C 0 5.06  5.06 0  11.5 0  L 25.2345679012323 0  L 49.5 0  C 55.94 0  61 5.06  61 11.5  C 61 17.94  55.94 23  49.5 23  L 11.5 23  Z " stroke-width="2" stroke="#797979" fill="none" transform="matrix(1 0 0 1 179 7 )" mask="url(#clip22)" />
  </g>
</svg>